<?xml version="1.0" encoding="iso-8859-1"?>
<!-- Generator: Adobe Illustrator 19.0.0, SVG Export Plug-In . SVG Version: 6.00 Build 0)  -->
<svg version="1.1" id="Layer_1" xmlns="http://www.w3.org/2000/svg" xmlns:xlink="http://www.w3.org/1999/xlink" x="0px" y="0px"
	 viewBox="0 0 480 480" style="enable-background:new 0 0 480 480;" xml:space="preserve">
<g transform="translate(0 -540.36)">
	<g>
		<g>
			<path d="M460,572.06h-31.9v-21.7c0-5.5-4.5-10-10-10H61.9c-5.5,0-10,4.5-10,10v21.7H20c-5.5,0-10,4.5-10,10v72.6
				c0,5.5,4.5,10,10,10s10-4.5,10-10v-62.6h21.9v355.7c0,5.5,4.5,10,10,10h42.4v52.6c0,5.5,4.5,10,10,10h41.9c5.5,0,10-4.5,10-10
				v-52.6h147.6v52.6c0,5.5,4.5,10,10,10h41.9c5.5,0,10-4.5,10-10v-52.6h42.4c5.5,0,10-4.5,10-10v-355.7H450v62.6
				c0,5.5,4.5,10,10,10s10-4.5,10-10v-72.6C470,576.56,465.5,572.06,460,572.06z M71.9,560.36H230v241.3H71.9V560.36z
				 M146.2,1000.36h-21.9v-42.6h21.9V1000.36z M355.7,1000.36h-21.9v-42.6h21.9V1000.36z M408.1,937.76H71.9v-116.1h336.2V937.76z
				 M408.1,801.66H250v-241.3h158.1V801.66z"/>
			<path d="M122.1,883.76l31,10c1,0.3,2.1,0.5,3.1,0.5c4.2,0,8.1-2.7,9.5-6.9c1.7-5.3-1.1-10.9-6.4-12.6l-31-10
				c-5.3-1.7-10.9,1.1-12.6,6.4S116.8,882.06,122.1,883.76z"/>
			<path d="M323.8,894.26c1,0,2.1-0.1,3.1-0.5l31-10c5.2-1.7,8.1-7.3,6.4-12.6c-1.7-5.2-7.3-8.1-12.6-6.4l-31,10
				c-5.2,1.7-8.1,7.3-6.4,12.6C315.7,891.56,319.6,894.26,323.8,894.26z"/>
		</g>
	</g>
</g>
<g>
</g>
<g>
</g>
<g>
</g>
<g>
</g>
<g>
</g>
<g>
</g>
<g>
</g>
<g>
</g>
<g>
</g>
<g>
</g>
<g>
</g>
<g>
</g>
<g>
</g>
<g>
</g>
<g>
</g>
</svg>
