<?xml version="1.0" encoding="UTF-8" standalone="no"?>
<svg
   height="24"
   width="24"
   version="1.1"
   id="svg5"
   sodipodi:docname="graph_add_build.svg"
   inkscape:version="1.4.2 (ebf0e940d0, 2025-05-08)"
   xmlns:inkscape="http://www.inkscape.org/namespaces/inkscape"
   xmlns:sodipodi="http://sodipodi.sourceforge.net/DTD/sodipodi-0.dtd"
   xmlns:xlink="http://www.w3.org/1999/xlink"
   xmlns="http://www.w3.org/2000/svg"
   xmlns:svg="http://www.w3.org/2000/svg">
  <defs
     id="defs5">
    <linearGradient
       xlink:href="#d"
       id="e"
       x1="5.4060001"
       x2="13.188"
       y1="4.9380002"
       y2="11.531"
       gradientUnits="userSpaceOnUse"
       gradientTransform="matrix(1.2335122,0,0,1.2335122,5.1160707,8.574792)" />
    <linearGradient
       id="d">
      <stop
         offset="0"
         style="stop-color:#cbd9ef;stop-opacity:1"
         id="stop1" />
      <stop
         offset="1"
         style="stop-color:#93b1d1;stop-opacity:1"
         id="stop2" />
    </linearGradient>
  </defs>
  <sodipodi:namedview
     id="namedview5"
     pagecolor="#ffffff"
     bordercolor="#000000"
     borderopacity="0.25"
     inkscape:showpageshadow="2"
     inkscape:pageopacity="0.0"
     inkscape:pagecheckerboard="0"
     inkscape:deskcolor="#d1d1d1"
     inkscape:zoom="44.806215"
     inkscape:cx="11.415827"
     inkscape:cy="15.433127"
     inkscape:window-width="2256"
     inkscape:window-height="1420"
     inkscape:window-x="0"
     inkscape:window-y="0"
     inkscape:window-maximized="1"
     inkscape:current-layer="svg5" />
  <g
     fill="none"
     stroke="#d0d0d0"
     stroke-opacity=".996"
     transform="matrix(.99986 0 0 1 1.993 1.99)"
     id="g1">
    <rect
       height="20"
       rx=".728"
       stroke-linejoin="round"
       width="20"
       x="1.51"
       y="1.51"
       id="rect1" />
    <path
       d="m1.47 5.85h20.5m-20.44 6.35 20.3.027m-20.22 5.573 20.3-.027m-16.41-16.273v20m6-20v20m6-20v20"
       id="path1" />
  </g>
  <g
     fill="none"
     stroke="#000"
     transform="matrix(.99986 0 0 1 1.993 1.99)"
     id="g2">
    <rect
       height="20"
       rx=".728"
       stroke-linejoin="round"
       width="20"
       x=".507"
       y=".507"
       id="rect2" />
    <path
       d="m.473 4.85h20.5m-20.446 6.35 20.3.027m-20.218 5.573 20.3-.027m-16.409-16.273v20m6-20v20m6-20v20"
       id="path2" />
  </g>
  <path
     d="m 16.207344,9.8482435 -0.528474,1.4702485 0.0079,0.08556 0.256668,1.27676 -1.487359,0.614688 -0.720646,-1.083272 -0.05528,-0.0645 -1.41365,-0.667338 -0.783167,0.783168 0.667337,1.413649 0.0645,0.05528 1.083272,0.721303 -0.615346,1.486044 -1.27676,-0.256668 -0.08556,-0.0066 -1.4695902,0.527815 v 1.10828 l 1.4702482,0.528473 0.08556,-0.0079 1.27676,-0.256668 0.614688,1.487359 -1.083272,0.720646 -0.0645,0.05528 -0.667337,1.41365 0.783167,0.783167 1.41365,-0.667337 0.05528,-0.0645 0.721304,-1.083272 1.486043,0.615346 -0.256668,1.27676 -0.0066,0.08556 0.527815,1.46959 h 1.10828 l 0.528473,-1.470248 -0.0079,-0.08556 -0.256668,-1.27676 1.487359,-0.614688 0.720646,1.083272 0.05528,0.0645 1.41365,0.667337 0.783167,-0.783167 -0.667337,-1.41365 -0.0645,-0.05528 -1.083272,-0.721304 0.615346,-1.486043 1.27676,0.256668 0.08556,0.0066 1.46959,-0.527815 v -1.10828 l -1.470248,-0.528474 -0.08556,0.0079 -1.27676,0.256668 -0.614688,-1.48736 1.083272,-0.720645 0.0645,-0.05528 0.667337,-1.413649 -0.783167,-0.783168 -1.41365,0.667338 -0.05528,0.0645 -0.721304,1.083272 -1.486043,-0.615346 0.256668,-1.27676 0.0066,-0.08556 -0.527815,-1.4695905 z m 0.55414,5.2649905 a 1.6453093,1.6453093 0 0 1 1.645309,1.645309 1.6453093,1.6453093 0 0 1 -1.645309,1.645309 1.6453093,1.6453093 0 0 1 -1.645309,-1.645309 1.6453093,1.6453093 0 0 1 1.645309,-1.645309 z"
     fill="#98b5d8"
     stroke="#457abe"
     id="path1-6"
     style="stroke-width:0.658124" />
</svg>
