<?xml version="1.0" encoding="UTF-8" standalone="no"?>
<svg
   height="24"
   width="24"
   version="1.1"
   id="svg5"
   sodipodi:docname="graph_folder.svg"
   inkscape:version="1.4.2 (ebf0e940d0, 2025-05-08)"
   xmlns:inkscape="http://www.inkscape.org/namespaces/inkscape"
   xmlns:sodipodi="http://sodipodi.sourceforge.net/DTD/sodipodi-0.dtd"
   xmlns="http://www.w3.org/2000/svg"
   xmlns:svg="http://www.w3.org/2000/svg">
  <defs
     id="defs5" />
  <sodipodi:namedview
     id="namedview5"
     pagecolor="#ffffff"
     bordercolor="#000000"
     borderopacity="0.25"
     inkscape:showpageshadow="2"
     inkscape:pageopacity="0.0"
     inkscape:pagecheckerboard="0"
     inkscape:deskcolor="#d1d1d1"
     inkscape:zoom="46.791667"
     inkscape:cx="12"
     inkscape:cy="14.243989"
     inkscape:window-width="2256"
     inkscape:window-height="1420"
     inkscape:window-x="0"
     inkscape:window-y="0"
     inkscape:window-maximized="1"
     inkscape:current-layer="svg5" />
  <g
     fill="none"
     stroke="#d0d0d0"
     stroke-opacity=".996"
     transform="matrix(.99986 0 0 1 1.993 1.99)"
     id="g1">
    <rect
       height="20"
       rx=".728"
       stroke-linejoin="round"
       width="20"
       x="1.51"
       y="1.51"
       id="rect1" />
    <path
       d="m1.47 5.85h20.5m-20.44 6.35 20.3.027m-20.22 5.573 20.3-.027m-16.41-16.273v20m6-20v20m6-20v20"
       id="path1" />
  </g>
  <g
     fill="none"
     stroke="#000"
     transform="matrix(.99986 0 0 1 1.993 1.99)"
     id="g2">
    <rect
       height="20"
       rx=".728"
       stroke-linejoin="round"
       width="20"
       x=".507"
       y=".507"
       id="rect2" />
    <path
       d="m.473 4.85h20.5m-20.446 6.35 20.3.027m-20.218 5.573 20.3-.027m-16.409-16.273v20m6-20v20m6-20v20"
       id="path2" />
  </g>
  <path
     d="m 15.67141,18.977278 h 6.664296 c 0,0 0,0 0,-1.504408 0,-1.504411 -0.416516,-1.504411 -3.332149,-1.504411 -2.91563,0 -3.332147,0 -3.332147,1.504411 z"
     fill="#fcffff"
     fill-rule="evenodd"
     opacity="0.3"
     id="path2-3"
     style="stroke-width:1.82809" />
  <path
     d="m 16.552402,18.977178 h 4.902313"
     fill="none"
     stroke="#ffffff"
     stroke-linecap="round"
     stroke-width="1.86673"
     id="path3-5" />
  <path
     d="m 14.298138,14.322951 v 8.684166 c 0,0 0.01363,0.578996 0.5379,0.578996 h 8.247797 c 0,0 0.537183,0 0.537183,-0.578996 l 7.17e-4,-7.140949 h -3.801159 l -1.434399,-1.543989 h -4.088039 z"
     fill="#eeeeee"
     stroke="#888a85"
     id="path1-9"
     style="stroke-width:0.744093" />
</svg>
