<?xml version="1.0" encoding="UTF-8" standalone="no"?>
<svg
   width="160"
   height="130"
   viewBox="0 0 160 130"
   fill="none"
   version="1.1"
   id="svg5"
   sodipodi:docname="elevation_icon.svg"
   inkscape:version="1.4.3 (0d15f75042, 2025-12-25)"
   xmlns:inkscape="http://www.inkscape.org/namespaces/inkscape"
   xmlns:sodipodi="http://sodipodi.sourceforge.net/DTD/sodipodi-0.dtd"
   xmlns="http://www.w3.org/2000/svg"
   xmlns:svg="http://www.w3.org/2000/svg">
  <defs
     id="defs5" />
  <sodipodi:namedview
     id="namedview5"
     pagecolor="#ffffff"
     bordercolor="#000000"
     borderopacity="0.25"
     inkscape:showpageshadow="2"
     inkscape:pageopacity="0.0"
     inkscape:pagecheckerboard="0"
     inkscape:deskcolor="#d1d1d1"
     inkscape:zoom="5.615"
     inkscape:cx="80.053428"
     inkscape:cy="59.928762"
     inkscape:window-width="2256"
     inkscape:window-height="1420"
     inkscape:window-x="0"
     inkscape:window-y="0"
     inkscape:window-maximized="1"
     inkscape:current-layer="svg5" />
  <!-- Terrain layers / bands (isochrone palette) -->
  <path
     d="m 0,95 c 30,-20 55,10 85,-10 25,-15 45,10 75,-5 v 50 H 0 Z"
     fill="#f76c5e"
     opacity="0.95"
     id="path1" />
  <path
     d="M 0,75 C 30,55 60,85 90,65 115,50 135,75 160,60 V 95 C 130,110 110,85 85,100 55,115 30,85 0,105 Z"
     fill="#fdb147"
     opacity="0.95"
     id="path2" />
  <path
     d="M 0,55 C 35,30 65,65 95,40 120,20 140,45 160,30 V 60 C 135,75 115,50 90,70 60,95 30,55 0,75 Z"
     fill="#ffe66d"
     opacity="0.95"
     id="path3" />
  <!-- Elevation profile line -->
  <!-- Central blue marker (same symbol) -->
  <path
     d="M 80,0 C 90,0 100,10 100,20 100,35 80,55 80,55 80,55 60,35 60,20 60,10 70,0 80,0 Z"
     fill="#1f3c88"
     id="path5" />
  <circle
     cx="80"
     cy="20"
     r="6"
     fill="#ffffff"
     id="circle5" />
  <!-- Label -->
</svg>
