<?xml version="1.0" encoding="UTF-8" standalone="no"?>
<svg
   width="143.98813"
   height="143.98814"
   viewBox="0 0 143.98813 143.98814"
   fill="none"
   version="1.1"
   id="svg6"
   sodipodi:docname="trace_route_icon.svg"
   inkscape:version="1.4.2 (ebf0e940d0, 2025-05-08)"
   xmlns:inkscape="http://www.inkscape.org/namespaces/inkscape"
   xmlns:sodipodi="http://sodipodi.sourceforge.net/DTD/sodipodi-0.dtd"
   xmlns="http://www.w3.org/2000/svg"
   xmlns:svg="http://www.w3.org/2000/svg">
  <defs
     id="defs6" />
  <sodipodi:namedview
     id="namedview6"
     pagecolor="#ffffff"
     bordercolor="#000000"
     borderopacity="0.25"
     inkscape:showpageshadow="2"
     inkscape:pageopacity="0.0"
     inkscape:pagecheckerboard="0"
     inkscape:deskcolor="#d1d1d1"
     inkscape:zoom="5.0959687"
     inkscape:cx="77.2179"
     inkscape:cy="83.104906"
     inkscape:window-width="2256"
     inkscape:window-height="1420"
     inkscape:window-x="0"
     inkscape:window-y="0"
     inkscape:window-maximized="1"
     inkscape:current-layer="svg6" />
  <!-- Road network (curved, colored) -->
  <path
     d="m 30.439784,4.000003 c -0.20714,50.99036 0.10634,84.997778 -0.10076,135.988137"
     stroke="#ffe66d"
     stroke-width="6.79491"
     stroke-linecap="round"
     id="path2"
     style="stroke-width:8;stroke-linecap:round;stroke-dasharray:none" />
  <path
     d="m 113.64912,4 c -0.20714,50.99036 0.10634,84.997771 -0.10076,135.98814"
     stroke="#ffe66d"
     stroke-width="6.79491"
     stroke-linecap="round"
     id="path2-5"
     style="stroke-width:8;stroke-linecap:round;stroke-dasharray:none" />
  <path
     d="m 4,114.5936 c 50.990362,0.20714 84.997776,-0.10634 135.98814,0.10076"
     stroke="#ffe66d"
     stroke-width="6.79491"
     stroke-linecap="round"
     id="path2-6"
     style="stroke:#fdb147;stroke-width:8;stroke-linecap:round;stroke-dasharray:none;stroke-opacity:1" />
  <!-- Raw GPS trace (offset, dashed) -->
  <!-- Snapped points -->
  <!-- Central blue marker -->
  <!-- Label -->
  <path
     style="fill:#000000;fill-opacity:0;stroke:#f76c5e;stroke-width:8;stroke-linecap:butt;stroke-linejoin:round;stroke-dasharray:8, 8;stroke-dashoffset:0;stroke-opacity:1"
     d="m 47.130275,4.585343 c -1.311159,1.489619 -1.858369,3.403137 -2.671416,5.164737 -0.389391,0.843682 -0.889273,1.635593 -1.24666,2.493322 -1.277937,3.514326 -1.118253,3.262268 -2.315227,6.055209 -0.947294,2.210351 -2.13663,4.362056 -3.027605,6.589493 -0.310432,0.77608 -1.028031,4.23373 -1.246661,4.452359 -0.04198,0.04198 -0.156047,-0.05512 -0.178094,0 -0.112421,0.281052 -0.08237,0.603304 -0.178095,0.890472 -0.714645,2.143937 -1.552542,4.551138 -2.493321,6.589493 -0.942008,2.041017 -2.122921,4.086522 -3.205699,6.055209 -0.230653,0.419369 -0.44689,0.84843 -0.712378,1.246661 -0.257189,0.385783 -0.799542,0.613916 -0.890472,1.068566 -0.04657,0.232848 0.03358,0.477305 0,0.712378 -0.01159,0.08114 -0.241557,0.77584 -0.356188,0.890472 -0.04198,0.04198 -0.151546,-0.0531 -0.178095,0 -0.109463,0.218926 -0.106112,0.478434 -0.178094,0.712377 -0.165625,0.53828 -0.405292,1.054637 -0.534283,1.60285 -0.109622,0.465891 -0.07427,0.957538 -0.178095,1.424755 -0.13445,0.605028 -0.396925,1.176569 -0.534283,1.780944 -0.42698,1.878714 -0.51343,3.81381 -0.890472,5.69902 -0.179117,0.895583 -0.539566,1.807358 -0.712377,2.671416 -0.03493,0.174636 0.04319,0.361506 0,0.534283 -0.02036,0.08145 -0.16163,0.09577 -0.178095,0.178095 -0.08322,0.416099 0.136105,1.016439 0,1.424755 -0.230868,0.692604 -0.45157,1.441645 -0.712377,2.137132 -0.09322,0.248584 -0.279902,0.458087 -0.356189,0.712378 -0.443821,0.492783 -0.06148,1.078079 -0.178095,1.602849 -0.08145,0.366516 -0.253043,0.707557 -0.356188,1.068567 -0.123944,0.433803 0.166413,1.008722 0,1.424755 -0.0986,0.246499 -0.25759,0.465879 -0.356189,0.712377 -0.04409,0.110238 0.08395,0.272235 0,0.356189 -0.319908,0.319908 -0.131264,-0.768434 -0.356189,0.356189 -0.113189,0.565946 -0.0649,1.214996 -0.178094,1.780946 -0.277444,1.38722 -0.135431,-0.56207 -0.356189,1.42475 -0.02622,0.23601 0.03904,0.47815 0,0.71238 -0.09642,0.57853 -0.419453,1.20679 -0.534283,1.78094 -0.143314,0.71657 -0.275167,1.58603 -0.356189,2.31523 -0.03278,0.29501 0.05821,0.59941 0,0.89047 -0.03682,0.18409 -0.15481,0.34801 -0.178094,0.53429 -0.149168,1.19333 0,2.54175 0,3.73998 v 6.2333 c 0,0.82961 -0.29546,1.51915 -0.534284,2.31523 -0.263617,0.87872 -0.249581,1.24916 -0.356188,2.31523 -0.09828,0.98281 0.855715,1.71358 1.068566,2.67141 0.226601,1.01971 0.362259,1.99546 0.534283,3.027609 0.103093,0.61855 0.387228,1.19272 0.534283,1.78094 0.05606,0.22424 -0.106519,0.67743 0,0.89047 0.242133,0.48427 0.860704,0.83761 1.068567,1.06857 1.51233,-0.0326 0.907839,1.33874 1.424755,1.95904 0.214985,0.25798 0.502594,0.45015 0.712377,0.71238 0.11991,0.14988 0.542457,0.89864 0.712378,1.06856 0.280491,0.28049 1.744537,0.67597 1.959038,0.89047 0.286704,0.28671 -0.326305,3.66588 0.890472,4.27427 0.218927,0.10946 0.487401,0.0817 0.712378,0.17809 0.196736,0.0843 0.331224,0.28851 0.534283,0.35619 0.456679,0.15223 2.433478,0.26297 3.027605,0.1781 0.544649,-0.0778 0.707902,-0.3547 1.24666,-0.53429 0.112637,-0.0375 0.243552,0.0376 0.356189,0 0.07965,-0.0265 0.09845,-0.15154 0.178094,-0.17809 0.168956,-0.0563 0.374991,0.0797 0.534284,0 0.519435,-0.25972 1.17381,-0.5606 1.780944,-0.71238 0.712377,-0.17809 0.08905,0.0891 0.534283,0 1.07216,-0.21443 2.104679,-0.17809 3.205699,-0.17809 0.424027,0 1.011678,0.10327 1.424755,0 1.092256,-0.27307 2.533406,-1.27873 3.383793,-1.95904 0.196673,-0.15734 0.32472,-0.39458 0.534283,-0.53428 0.1562,-0.10414 0.366375,-0.0941 0.534284,-0.1781 2.208202,-1.1041 -2.155044,0.72005 1.602849,-0.89047 1.589037,-0.68102 3.244099,-1.21406 4.808549,-1.95904 0.848363,-0.40398 4.159198,-2.23788 5.164737,-2.31523 3.300876,-0.25391 3.828411,0.6942 6.233304,2.13714 0.735336,0.4412 1.684301,0.52568 2.493321,0.71237 1.239036,0.28594 2.996206,0.84141 4.096166,1.24666 1.67867,0.61846 3.10904,1.92682 4.80855,2.49333 0.11264,0.0375 0.23977,-0.0233 0.35619,0 1.46948,0.29389 2.68903,1.03458 4.27427,0.89047 0.57942,-0.0527 -0.12226,-0.51567 0.35619,-0.35619 0.60299,0.201 0.40614,0.45376 1.24666,0.71238 0.86493,0.26613 1.99954,0.1093 2.84951,0.53428 0.15018,0.0751 0.206,0.2811 0.35619,0.35619 0.10619,0.0531 0.241,-0.0288 0.35618,0 0.94966,0.23741 -0.4632,0.23836 1.06857,0.35619 3.31402,0 0.0593,-0.0756 2.84951,0.17809 0.23649,0.0215 0.48201,-0.0576 0.71238,0 0.9128,0.2282 1.74858,0.83786 2.67141,1.06857 0.50141,0.12535 1.08919,-0.0734 1.60285,0 1.18228,0.16889 2.23261,0.64811 3.3838,0.89047 0.76407,0.16086 1.539754,0.26496 2.315224,0.35619 0.50085,0.0589 1.11428,-0.12215 1.60285,0 1.01217,0.25304 1.82916,1.01991 2.84951,1.24666 0.46361,0.10302 0.9522,-0.0473 1.42476,0 0.77695,0.0777 1.56192,0.15074 2.31523,0.35619 0.69106,0.18847 1.6007,0.6523 2.31522,0.89047 0.35647,0.11882 3.1604,0.0638 3.3838,0 0.16145,-0.0461 0.21648,-0.26305 0.35619,-0.35619 0.6803,-0.45354 1.4796,-0.88369 1.95903,-1.60285 0.83595,-1.25391 0.60456,-6.34272 0.1781,-7.47996 -0.0845,-0.22541 -0.77345,-1.7568 -0.89047,-2.13713 -0.44407,-1.44323 -0.37609,-2.79031 -1.24666,-4.09618 -0.80162,-1.20242 -2.21043,-1.97992 -3.02761,-3.20569 -0.17733,-0.265999 -0.23026,-0.596639 -0.35619,-0.890479 -0.23031,-0.5374 -0.56173,-1.03791 -0.71237,-1.60285 -0.0918,-0.34416 0.0585,-0.71722 0,-1.06856 -0.0617,-0.37035 -0.23746,-0.71238 -0.35619,-1.06857 -0.11873,-0.59365 -0.2811,-1.18021 -0.35619,-1.78094 -0.0442,-0.35344 0.0222,-0.71307 0,-1.06857 -0.081,-1.29534 -0.41277,-3.49627 -0.53429,-4.63045 -0.19093,-1.78203 -0.36058,-3.44261 -0.89047,-5.16474 -0.39252,-1.2757 -0.20775,-0.49961 -0.71238,-1.42476 -0.57208,-1.04881 -1.03644,-2.1538 -1.60284,-3.20569 -0.10148,-0.18846 -0.28851,-0.33123 -0.35619,-0.53429 -0.11419,-0.34257 -0.0513,-0.73045 -0.1781,-1.06856 -0.0589,-0.15722 -0.2811,-0.20601 -0.35619,-0.35619 -0.0531,-0.1062 0.0441,-0.24595 0,-0.35619 -0.0674,-0.16854 -0.85654,-1.21274 -0.89047,-1.24666 -0.80387,-0.80387 -1.72767,-1.45387 -2.49332,-2.31523 -0.84105,-0.946178 -1.22697,-2.180798 -1.95904,-3.205699 -0.19519,-0.273266 -0.526104,-0.43296 -0.712384,-0.712377 -0.14726,-0.220899 -0.21959,-0.484724 -0.35618,-0.712378 -0.0432,-0.07199 -0.16163,-0.09577 -0.1781,-0.178094 -0.4745,-2.372521 1.515184,-3.805361 2.849514,-5.520926 0.67794,-0.871642 1.31721,-1.772852 1.95904,-2.671416 0.67658,-0.947214 0.0918,-0.154879 0.71238,-1.60285 0.36603,-0.854075 0.88927,-1.635592 1.24666,-2.493321 0.62743,-1.505836 1.3679,-3.660393 2.31522,-4.986643 1.41032,-1.974435 3.19751,-3.723589 4.27427,-5.877115 0.0481,-0.09629 3.34721,-1.702225 3.73998,-1.959038 1.03391,-0.676018 2.05907,-1.370378 3.02761,-2.137133 0.73814,-0.432208 1.12537,-1.256484 1.78094,-1.780944 0.10366,-0.08292 0.27327,-0.07444 0.35619,-0.178094 0.54755,-0.68444 0.75009,-1.592946 1.24666,-2.315227 0.31007,-0.451012 0.7585,-0.795649 1.06857,-1.246661 1.63666,-2.380602 0.34901,-0.819151 1.24666,-2.315227 0.0432,-0.07199 0.16429,-0.09528 0.17809,-0.178094 0.38411,-2.304652 -0.65753,-4.429368 -1.24666,-6.589493 -0.2393,-0.877443 -0.49127,-1.786994 -0.71238,-2.671416 -0.0981,-0.392438 -0.0815,-0.860223 -0.17809,-1.24666 -0.0809,-0.32377 -0.31962,-0.73944 -0.35619,-1.068567 -0.0563,-0.506767 -0.15591,-3.828704 0,-4.452359 0.1136,-0.454416 0.71238,-0.931139 0.71238,-1.068567"
     id="path7"
     sodipodi:nodetypes="cscsssssssssssssssssssssscssssssssssssssssssssscssssssssccscscsssscssssssccsssssccssscsssscsssssssssssscscssssscsscsssscssssscscssssscsssssc" />
  <circle
     cx="30.389404"
     cy="39.826664"
     r="9.4523602"
     fill="#1f3c88"
     id="circle3"
     style="stroke-width:0.999999" />
  <circle
     cx="30.193501"
     cy="114.67082"
     r="9.4523602"
     fill="#1f3c88"
     id="circle3-5"
     style="stroke-width:0.999999" />
  <circle
     cx="91.526535"
     cy="115.09024"
     r="9.4523602"
     fill="#1f3c88"
     id="circle3-2"
     style="stroke-width:0.999999" />
  <circle
     cx="113.59243"
     cy="43.921055"
     r="9.4523602"
     fill="#1f3c88"
     id="circle3-2-1"
     style="fill:#1f3c88;fill-opacity:1;stroke-width:0.999999" />
</svg>
