<?xml version="1.0" encoding="UTF-8" standalone="no"?>
<svg
   width="166"
   height="166"
   viewBox="0 0 166 166"
   fill="none"
   version="1.1"
   id="svg9"
   sodipodi:docname="expansion_icon_curved.svg"
   inkscape:version="1.4.2 (ebf0e940d0, 2025-05-08)"
   xmlns:inkscape="http://www.inkscape.org/namespaces/inkscape"
   xmlns:sodipodi="http://sodipodi.sourceforge.net/DTD/sodipodi-0.dtd"
   xmlns="http://www.w3.org/2000/svg"
   xmlns:svg="http://www.w3.org/2000/svg">
  <defs
     id="defs9" />
  <sodipodi:namedview
     id="namedview9"
     pagecolor="#ffffff"
     bordercolor="#000000"
     borderopacity="0.25"
     inkscape:showpageshadow="2"
     inkscape:pageopacity="0.0"
     inkscape:pagecheckerboard="0"
     inkscape:deskcolor="#d1d1d1"
     inkscape:zoom="5.615"
     inkscape:cx="66.874443"
     inkscape:cy="74.888691"
     inkscape:window-width="2256"
     inkscape:window-height="1420"
     inkscape:window-x="0"
     inkscape:window-y="0"
     inkscape:window-maximized="1"
     inkscape:current-layer="svg9" />
  <!-- Curved colored road segments -->
  <path
     d="M 3,83 C 23,73 43,73 83,83"
     stroke="#f76c5e"
     stroke-width="6"
     stroke-linecap="round"
     id="path1" />
  <path
     d="m 83,83 c 30,10 50,10 80,0"
     stroke="#fdb147"
     stroke-width="6"
     stroke-linecap="round"
     id="path2" />
  <path
     d="m 83,3 c -5,20 -5,40 0,80"
     stroke="#ffe66d"
     stroke-width="6"
     stroke-linecap="round"
     id="path3" />
  <path
     d="m 83,83 c 5,30 5,50 0,80"
     stroke="#f76c5e"
     stroke-width="6"
     stroke-linecap="round"
     id="path4" />
  <path
     d="M 23,23 C 43,43 63,63 83,83"
     stroke="#fdb147"
     stroke-width="6"
     stroke-linecap="round"
     id="path5" />
  <path
     d="m 83,83 c 20,20 40,40 60,60"
     stroke="#ffe66d"
     stroke-width="6"
     stroke-linecap="round"
     id="path6" />
  <path
     d="M 143,23 C 123,43 103,63 83,83"
     stroke="#f76c5e"
     stroke-width="6"
     stroke-linecap="round"
     id="path7" />
  <path
     d="M 83,83 C 63,103 43,123 23,143"
     stroke="#fdb147"
     stroke-width="6"
     stroke-linecap="round"
     id="path8" />
  <!-- Blue marker symbol -->
  <path
     d="m 83.53428,35.190561 c 10,0 20,10 20,20 0,15 -20,34.999999 -20,34.999999 0,0 -19.999997,-19.999999 -19.999997,-34.999999 0,-10 10,-20 19.999997,-20 z"
     fill="#1f3c88"
     id="path9" />
  <circle
     cx="83.534286"
     cy="55.190559"
     r="6"
     fill="#ffffff"
     id="circle9" />
  <!-- Label -->
</svg>
