<?xml version="1.0" encoding="UTF-8" standalone="no"?>
<svg
   id="Layer_1"
   data-name="Layer 1"
   viewBox="0 0 505.97 505.97"
   version="1.1"
   sodipodi:docname="settings_logo2.svg"
   inkscape:version="1.4.2 (ebf0e940d0, 2025-05-08)"
   xmlns:inkscape="http://www.inkscape.org/namespaces/inkscape"
   xmlns:sodipodi="http://sodipodi.sourceforge.net/DTD/sodipodi-0.dtd"
   xmlns="http://www.w3.org/2000/svg"
   xmlns:svg="http://www.w3.org/2000/svg">
  <sodipodi:namedview
     id="namedview15"
     pagecolor="#ffffff"
     bordercolor="#000000"
     borderopacity="0.25"
     inkscape:showpageshadow="2"
     inkscape:pageopacity="0.0"
     inkscape:pagecheckerboard="0"
     inkscape:deskcolor="#d1d1d1"
     inkscape:zoom="2.2194992"
     inkscape:cx="316.9634"
     inkscape:cy="242.6223"
     inkscape:window-width="2256"
     inkscape:window-height="1420"
     inkscape:window-x="0"
     inkscape:window-y="0"
     inkscape:window-maximized="1"
     inkscape:current-layer="g3" />
  <defs
     id="defs1">
    <style
       id="style1">
      .cls-1 {
        fill: #57698f;
      }

      .cls-2 {
        fill: #252c3a;
        stroke: #fff;
        stroke-miterlimit: 10;
      }

      .cls-3 {
        fill: #39445b;
      }

      .cls-4 {
        fill: #c7cedb;
      }
    </style>
  </defs>
  <circle
     class="cls-1"
     cx="250.75"
     cy="255.22"
     r="213.62"
     id="circle1" />
  <polygon
     class="cls-4"
     points="118.26 136.11 378.93 136.11 344.74 193.37 289.43 193.37 293.35 184.3 203.28 183.92 238.97 250.62 208.33 301.07 118.26 136.11"
     id="polygon1" />
  <polygon
     class="cls-4"
     points="82.06 197.52 145.67 197.52 173.88 250.15 159.68 250.15 198.87 322.86 241.09 254.36 307.74 254.36 205.12 423.7 82.06 197.52"
     id="polygon2" />
  <polygon
     class="cls-4"
     points="214.68 197.52 242.71 249.3 329.98 249.3 284.01 324.5 277.84 311.09 243.65 367.21 274.48 423.7 411.63 197.52 214.68 197.52"
     id="polygon3" />
  <path
     class="cls-3"
     d="M252.99,0C113.27,0,0,113.27,0,252.99s113.27,252.99,252.99,252.99,252.99-113.27,252.99-252.99S392.71,0,252.99,0ZM250.67,476.9c-122.39,0-221.6-99.21-221.6-221.6S128.28,33.71,250.67,33.71s221.6,99.21,221.6,221.6-99.21,221.6-221.6,221.6Z"
     id="path3" />
  <g
     id="g3"
     transform="matrix(10.053977,0,0,10.10225,176.58286,153.5869)"
     inkscape:transform-center-x="-881.13739"
     inkscape:transform-center-y="-421.19454">
    <path
       class="st0"
       d="M 25.332,13.512 C 25.119,12.695 24.79,11.901 24.355,11.152 24.191,10.87 24.174,10.525 24.312,10.229 L 25.228,8.252 23.747,6.77 21.77,7.686 C 21.474,7.823 21.13,7.808 20.847,7.644 20.096,7.208 19.302,6.88 18.488,6.667 18.171,6.584 17.914,6.351 17.801,6.043 L 17.052,4 h -2.104 l -0.75,2.044 c -0.113,0.308 -0.37,0.541 -0.687,0.624 -0.814,0.212 -1.608,0.541 -2.36,0.977 -0.281,0.164 -0.627,0.18 -0.922,0.042 L 8.253,6.771 6.771,8.253 7.688,10.229 C 7.825,10.525 7.81,10.87 7.646,11.152 7.21,11.903 6.881,12.697 6.669,13.512 6.586,13.829 6.353,14.086 6.045,14.199 L 4,14.948 v 2.104 l 2.044,0.75 c 0.308,0.112 0.541,0.369 0.624,0.687 0.212,0.814 0.541,1.608 0.977,2.359 0.164,0.282 0.18,0.627 0.042,0.923 l -0.917,1.977 1.482,1.481 1.977,-0.916 c 0.296,-0.138 0.641,-0.122 0.923,0.043 0.749,0.435 1.542,0.764 2.36,0.977 0.317,0.083 0.574,0.315 0.687,0.623 L 14.948,28 h 2.104 l 0.75,-2.045 c 0.112,-0.308 0.369,-0.54 0.686,-0.623 0.818,-0.214 1.612,-0.542 2.359,-0.977 0.284,-0.163 0.629,-0.181 0.924,-0.043 l 1.977,0.916 1.481,-1.481 -0.916,-1.977 c -0.138,-0.297 -0.121,-0.642 0.043,-0.924 0.435,-0.747 0.763,-1.541 0.977,-2.359 0.083,-0.316 0.315,-0.573 0.623,-0.686 L 28,17.052 v -2.104 l -2.045,-0.75 C 25.647,14.086 25.415,13.83 25.332,13.512 Z M 16,21.36 c -2.956,0 -5.36,-2.404 -5.36,-5.36 0,-2.956 2.404,-5.36 5.36,-5.36 2.956,0 5.36,2.404 5.36,5.36 0,2.956 -2.404,5.36 -5.36,5.36 z"
       id="path1"
       style="fill:#010101;fill-opacity:1" />
    <path
       class="st1"
       d="M 29.345,13.311 27.121,12.496 C 26.919,11.85 26.657,11.219 26.34,10.612 l 0.997,-2.151 c 0.177,-0.38 0.097,-0.831 -0.2,-1.127 l -2.47,-2.47 C 24.371,4.566 23.92,4.487 23.539,4.664 l -2.15,0.997 C 20.78,5.343 20.149,5.082 19.504,4.88 L 18.689,2.657 C 18.544,2.262 18.17,2 17.75,2 h -3.5 C 13.831,2 13.456,2.262 13.311,2.656 L 12.496,4.879 C 11.852,5.081 11.221,5.342 10.612,5.66 L 8.46,4.663 C 8.08,4.486 7.629,4.566 7.333,4.863 l -2.47,2.47 C 4.566,7.63 4.486,8.08 4.663,8.461 l 0.998,2.15 C 5.343,11.22 5.081,11.851 4.88,12.495 L 2.656,13.31 C 2.262,13.456 2,13.831 2,14.25 v 3.5 c 0,0.42 0.262,0.794 0.656,0.938 l 2.223,0.815 c 0.202,0.646 0.463,1.275 0.781,1.885 l -0.998,2.15 c -0.177,0.381 -0.097,0.831 0.2,1.128 l 2.47,2.47 c 0.297,0.297 0.748,0.377 1.127,0.2 l 2.151,-0.997 c 0.607,0.317 1.238,0.579 1.884,0.781 l 0.815,2.224 C 13.456,29.738 13.831,30 14.25,30 h 3.5 c 0.42,0 0.794,-0.262 0.938,-0.655 l 0.815,-2.224 c 0.646,-0.202 1.277,-0.464 1.885,-0.781 l 2.15,0.997 c 0.381,0.177 0.832,0.097 1.128,-0.2 l 2.47,-2.47 c 0.297,-0.297 0.377,-0.747 0.2,-1.128 l -0.997,-2.15 c 0.317,-0.607 0.579,-1.238 0.781,-1.885 l 2.224,-0.815 C 29.738,18.544 30,18.17 30,17.75 v -3.5 c 0,-0.419 -0.262,-0.794 -0.655,-0.939 z M 28,17.052 l -2.045,0.75 c -0.308,0.112 -0.54,0.369 -0.623,0.686 -0.214,0.818 -0.542,1.612 -0.977,2.359 -0.164,0.282 -0.181,0.627 -0.043,0.924 l 0.916,1.977 -1.481,1.481 -1.977,-0.916 c -0.295,-0.138 -0.64,-0.12 -0.924,0.043 -0.747,0.435 -1.541,0.763 -2.359,0.977 -0.316,0.083 -0.573,0.315 -0.686,0.623 L 17.052,28 h -2.104 l -0.75,-2.045 C 14.085,25.647 13.829,25.415 13.511,25.332 12.694,25.119 11.9,24.79 11.151,24.355 10.869,24.19 10.524,24.174 10.228,24.312 L 8.251,25.228 6.769,23.747 7.686,21.77 C 7.823,21.474 7.808,21.129 7.644,20.847 7.208,20.096 6.879,19.302 6.667,18.488 6.584,18.171 6.351,17.914 6.043,17.801 L 4,17.052 v -2.104 l 2.044,-0.75 c 0.308,-0.113 0.541,-0.37 0.624,-0.687 0.212,-0.814 0.541,-1.608 0.977,-2.36 0.164,-0.282 0.18,-0.626 0.042,-0.923 L 6.771,8.253 8.253,6.771 10.229,7.687 c 0.295,0.138 0.641,0.122 0.922,-0.042 0.752,-0.436 1.546,-0.765 2.36,-0.977 0.317,-0.083 0.574,-0.316 0.687,-0.624 L 14.948,4 h 2.104 l 0.75,2.044 c 0.112,0.308 0.369,0.541 0.687,0.624 0.814,0.212 1.608,0.541 2.359,0.977 0.283,0.164 0.627,0.179 0.923,0.042 l 1.977,-0.916 1.481,1.482 -0.916,1.977 c -0.138,0.296 -0.121,0.641 0.043,0.923 0.435,0.749 0.764,1.542 0.977,2.36 0.083,0.317 0.315,0.574 0.623,0.687 L 28,14.948 Z"
       id="path2"
       style="fill:#d81c16;fill-opacity:1" />
    <path
       class="st1"
       d="m 16,10.64 c -2.956,0 -5.36,2.404 -5.36,5.36 0,2.956 2.404,5.36 5.36,5.36 2.956,0 5.36,-2.404 5.36,-5.36 0,-2.956 -2.404,-5.36 -5.36,-5.36 z m 0,8.72 c -1.853,0 -3.36,-1.508 -3.36,-3.36 0,-1.852 1.507,-3.36 3.36,-3.36 1.853,0 3.36,1.507 3.36,3.36 0,1.853 -1.507,3.36 -3.36,3.36 z"
       id="path3-1"
       style="fill:#cc3629;fill-opacity:1" />
  </g>
  <circle
     class="cls-4"
     cx="252.99"
     cy="17.04"
     r="6.14"
     id="circle3" />
  <circle
     class="cls-4"
     cx="252.99"
     cy="491.46"
     r="6.14"
     id="circle4" />
  <circle
     class="cls-4"
     cx="464.37"
     cy="360.45"
     r="6.14"
     id="circle5" />
  <circle
     class="cls-4"
     cx="35.21"
     cy="348.17"
     r="6.14"
     id="circle6" />
  <circle
     class="cls-4"
     cx="45.78"
     cy="136.11"
     r="6.14"
     id="circle7" />
  <circle
     class="cls-4"
     cx="455.95"
     cy="136.11"
     r="6.14"
     id="circle8" />
  <g
     id="g15">
    <polygon
       class="cls-2"
       points="170.3 65.76 176.56 65.76 176.56 113.58 182.83 117.1 182.83 65.76 189.09 65.76 189.09 113.58 176.56 120.78 170.3 117.1 170.3 65.76"
       id="polygon8" />
    <polygon
       class="cls-2"
       points="206.8 65.19 200.48 68.82 207.01 72.14 207.01 84.75 200.48 84.75 200.48 68.82 194.27 72.39 194.27 120.78 200.54 120.78 200.54 89.96 206.8 89.96 206.8 120.78 213.07 120.78 213.07 68.79 206.8 65.19"
       id="polygon9" />
    <polygon
       class="cls-2"
       points="218.39 65.76 224.66 65.76 224.66 114.15 232.51 116.38 228.4 121.28 218.39 118.4 218.39 65.76"
       id="polygon10" />
    <polygon
       class="cls-2"
       points="235.24 65.76 235.24 120.78 241.5 120.78 241.5 90.39 247.77 90.39 247.77 120.78 254.03 120.78 254.03 65.76 247.85 65.76 247.76 84.75 241.64 84.75 241.5 65.76 235.24 65.76"
       id="polygon11" />
    <polygon
       class="cls-2"
       points="272.11 64.83 265.8 68.46 272.32 71.77 272.32 84.38 265.8 84.38 265.8 68.46 259.59 72.03 259.59 120.41 265.85 120.41 265.85 89.6 272.11 89.6 272.11 120.41 278.38 120.41 278.38 68.43 272.11 64.83"
       id="polygon12" />
    <polygon
       class="cls-2"
       points="329.41 64.83 323.09 68.46 329.61 71.77 329.61 84.38 323.09 84.38 323.09 68.46 316.88 72.03 316.88 120.41 323.14 120.41 323.14 89.6 329.41 89.6 329.41 120.41 335.67 120.41 335.67 68.43 329.41 64.83"
       id="polygon13" />
    <polygon
       class="cls-2"
       points="284.03 65.79 290.29 65.79 290.29 114.18 298.14 116.41 294.04 121.31 284.03 118.43 284.03 65.79"
       id="polygon14" />
    <polygon
       class="cls-2"
       points="300.28 65.79 306.54 65.79 306.54 114.18 314.39 116.41 310.29 121.31 300.28 118.43 300.28 65.79"
       id="polygon15" />
  </g>
</svg>
